<svg width="67" height="80" viewBox="0 0 67 80" fill="none" xmlns="http://www.w3.org/2000/svg">
<path d="M51.102 40.2013C50.984 37.317 50.8661 34.4326 50.7481 31.5477C45.5669 38.3953 40.3852 45.2429 35.2041 52.0904V52.0733H31.7846V52.5635C26.6006 45.7125 21.4166 38.862 16.2331 32.011C16.1174 34.8344 16.0023 37.6584 15.8866 40.4823C21.1857 44.6416 26.4854 48.8014 31.7846 52.9607V77.7198H35.2041V52.6797C40.5032 48.5205 45.8029 44.3606 51.102 40.2013Z" fill="#585C62"/>
<path d="M36.344 78.8602H30.6447V53.5158L14.7234 41.0192L15.2238 28.7892L31.9801 50.9341H34.649L51.7569 28.3259L52.2647 40.7376L36.3434 53.2343V78.8602H36.344ZM32.9244 76.5805H34.0643V53.2137H32.9244V76.5805ZM17.0487 39.946L26.3048 47.2108L17.2419 35.2333L17.0487 39.946ZM49.7394 34.7706L40.326 47.2108L49.94 39.665L49.7394 34.7706Z" fill="#585C62"/>
<path d="M44.6802 80H22.0264C15.3601 80 9.40155 75.7729 7.1988 69.481L0.882946 51.4424C-1.47595 44.7066 1.01003 37.215 6.92751 33.2249L24.5705 21.3296C29.9056 17.7317 36.801 17.7317 42.1361 21.3296L59.7791 33.2249C65.6966 37.215 68.182 44.7066 65.8237 51.4424L59.5078 69.481C57.3051 75.7723 51.3465 80 44.6802 80ZM33.353 23.1943C31.1828 23.1943 29.0125 23.8327 27.1192 25.1093L9.4762 37.0046C5.27531 39.8366 3.51141 45.1539 5.18584 49.935L11.5017 67.9735C13.065 72.4394 17.2944 75.4401 22.0258 75.4401H44.6796C49.4117 75.4401 53.641 72.4394 55.2043 67.9735L61.5202 49.935C63.1946 45.1539 61.4301 39.8366 57.2298 37.0046L39.5868 25.1093C37.6935 23.8327 35.5233 23.1943 33.353 23.1943Z" fill="#585C62"/>
<path d="M33.3792 20.7956C32.4195 20.7956 31.5737 20.1014 31.413 19.1228C31.1901 17.763 30.9844 15.2844 32.1089 13.9605C32.6195 13.3592 33.3313 13.0281 34.1121 13.0281C35.4822 13.0281 36.7628 12.4166 37.6268 11.3508C38.5034 10.2697 38.8225 8.90075 38.5256 7.49647C38.17 5.81691 36.8027 4.44967 35.1232 4.09461C33.7194 3.79769 32.3505 4.1157 31.2688 4.99281C30.2031 5.85681 29.5915 7.13799 29.5915 8.5075C29.5915 9.60916 28.6985 10.5022 27.5968 10.5022C26.4951 10.5022 25.6021 9.60916 25.6021 8.5075C25.6021 5.92919 26.7522 3.51843 28.7572 1.89358C30.7621 0.26874 33.3843 -0.350198 35.9495 0.191797C39.1975 0.87969 41.7411 3.42211 42.429 6.67066C42.9721 9.23701 42.352 11.8592 40.7272 13.8636C39.3406 15.574 37.3823 16.6625 35.236 16.9446C35.232 17.4205 35.2782 18.0326 35.3517 18.4783C35.5301 19.5651 34.7932 20.591 33.7058 20.7693C33.5952 20.787 33.4863 20.7956 33.3792 20.7956Z" fill="#585C62"/>
</svg>
